<svg version="1.1" xmlns="http://www.w3.org/2000/svg" height="1024" width="1024" viewBox="0 0 1024 1024"><path d="M915.966928 377.043325H92.228861c-17.49752 0-31.72131-14.22379-31.721309-31.72131s14.22379-31.72131 31.721309-31.721309h749.006725L671.114541 137.722412c-12.19182-12.530482-11.853158-32.624407 0.79021-44.816227 12.530482-12.19182 32.624407-11.853158 44.816228 0.79021l222.049168 229.725499c8.805203 9.143865 11.40161 22.690332 6.434571 34.430603-5.079925 11.627384-16.594422 19.190828-29.23779 19.190828zM330.08224 931.545364c-8.240767 0-16.594422-3.273729-22.803219-9.708301L85.229853 692.111564c-8.805203-9.143865-11.40161-22.690332-6.434571-34.430603a31.642289 31.642289 0 0 1 29.124903-19.303715h823.738067c17.49752 0 31.72131 14.22379 31.721309 31.72131 0 17.49752-14.22379 31.72131-31.721309 31.72131H182.764414l170.121045 175.99118c12.19182 12.530482 11.853158 32.624407-0.79021 44.816228-6.09591 5.870136-13.998016 8.918091-22.013009 8.91809z"></path></svg>